<?xml version="1.0" encoding="UTF-8" standalone="no"?>
<svg
   xmlns:dc="http://purl.org/dc/elements/1.1/"
   xmlns:cc="http://creativecommons.org/ns#"
   xmlns:rdf="http://www.w3.org/1999/02/22-rdf-syntax-ns#"
   xmlns:svg="http://www.w3.org/2000/svg"
   xmlns="http://www.w3.org/2000/svg"
   viewBox="0 0 213.33333 33.333332"
   height="33.333332"
   width="213.33333"
   xml:space="preserve"
   id="svg2"
   version="1.1"><metadata
     id="metadata8"><rdf:RDF><cc:Work
         rdf:about=""><dc:format>image/svg+xml</dc:format><dc:type
           rdf:resource="http://purl.org/dc/dcmitype/StillImage" /></cc:Work></rdf:RDF></metadata><defs
     id="defs6" /><g
     transform="matrix(1.3333333,0,0,-1.3333333,0,33.333333)"
     id="g10"><g
       transform="scale(0.1)"
       id="g12"><path
         id="path14"
         style="fill:#828282;fill-opacity:1;fill-rule:evenodd;stroke:none"
         d="m 1259.05,237.91 h 39.64 V 3.08203 h -39.64 z m 272.29,-55.437 c -16.02,16.574 -35.67,24.863 -58.96,24.863 -23.29,0 -42.95,-8.289 -58.96,-24.863 -16.01,-16.575 -24.02,-36.672 -24.02,-60.297 0,-23.6291 8.01,-43.7346 24.02,-60.3049 16.01,-16.5742 35.67,-24.8633 58.96,-24.8633 23.29,0 42.94,8.2891 58.96,24.8633 16.01,16.5703 24.02,36.6758 24.02,60.3049 0,23.625 -8.01,43.722 -24.02,60.297 z M 1560.39,35.5 c -23.73,-23.1797 -53.07,-34.769531 -88.01,-34.769531 -34.94,0 -64.28,11.589831 -88.02,34.769531 -23.74,23.1797 -35.61,52.0703 -35.61,86.676 0,34.597 11.87,63.492 35.61,86.668 23.74,23.187 53.08,34.777 88.02,34.777 34.94,0 64.28,-11.59 88.01,-34.777 23.75,-23.176 35.62,-52.071 35.62,-86.668 0,-34.6057 -11.87,-63.4963 -35.62,-86.676" /><path
         id="path16"
         style="fill:#828282;fill-opacity:1;fill-rule:evenodd;stroke:none"
         d="M 461.855,35.3242 C 438.117,12.1484 408.77,0.558594 373.836,0.558594 c -34.938,0 -64.281,11.589806 -88.023,34.765606 -23.735,23.1836 -35.61,52.0821 -35.61,86.6758 0,34.602 11.875,63.5 35.61,86.684 23.742,23.179 53.085,34.765 88.023,34.765 34.934,0 64.281,-11.586 88.019,-34.765 23.739,-23.184 35.606,-52.082 35.606,-86.684 0,-34.5937 -11.867,-63.4922 -35.606,-86.6758 z m -331.582,3.7031 c 13.665,0 25.426,2.2969 35.274,6.8868 9.859,4.5898 20.16,11.9257 30.91,22.0039 L 221.988,41.7148 C 197.125,14.168 166.953,0.394531 131.453,0.394531 95.9531,0.394531 66.5,11.8164 43.0977,34.6602 19.6914,57.5039 7.98828,86.3945 7.98828,121.336 c 0,34.934 11.92972,64.051 35.78512,87.344 23.8477,23.289 53.9688,34.941 90.3676,34.941 36.39,0 66.797,-13.441 91.207,-40.316 l -25.196,-27.547 c -11.199,10.746 -21.777,18.254 -31.746,22.508 -9.968,4.254 -21.668,6.382 -35.109,6.382 -23.738,0 -43.6681,-7.671 -59.797,-23.011 -16.125,-15.344 -24.1875,-34.938 -24.1875,-58.793 0,-23.8518 8.0078,-43.7815 24.0195,-59.7971 16.0118,-16.0156 34.996,-24.0196 56.941,-24.0196 z M 555.348,237.91 H 513.023 L 616.496,3.08203 H 658.82 L 762.293,237.91 H 719.961 C 692.547,175.633 665.109,113.375 637.656,51.1211 610.203,113.375 582.77,175.633 555.348,237.91 Z M 772.129,3.08203 H 729.801 L 833.273,237.91 h 42.329 L 979.07,3.08203 H 936.742 C 909.324,65.3516 881.891,127.613 854.434,189.867 826.98,127.613 799.547,65.3516 772.129,3.08203 Z M 1201.94,161.645 c 0,-38.743 -16.91,-63.1567 -50.73,-73.2309 l 61.48,-85.33207 h -50.4 l -56.1,78.94527 h -52.07 V 3.08203 h -39.64 V 237.91 h 87.35 c 35.83,0 61.48,-6.051 76.92,-18.144 15.46,-12.094 23.19,-31.465 23.19,-58.121 z m -98.44,-43.672 c 22.4,0 37.63,3.476 45.7,10.418 8.06,6.945 12.09,18.082 12.09,33.425 0,15.344 -4.15,25.868 -12.43,31.579 -8.29,5.714 -23.07,8.566 -44.34,8.566 h -50.4 v -83.988 z m -749.445,83.14 h 39.55 v -59.332 h 59.34 v -39.554 h -59.34 V 42.8984 h -39.55 v 59.3286 h -59.332 v 39.554 h 59.332 v 59.332" /></g></g></svg>
