<?xml version="1.0"?>
<svg width="32" height="32" viewBox="0 0 32 32" fill="none" xmlns="http://www.w3.org/2000/svg">
<path fill-rule="evenodd" clip-rule="evenodd" d="M24.2457 25.6696L22.0434 23.4673C21.02 24.1457 19.861 24.636 18.6159 24.8888L18.6159 28.0003H14.7184V24.8891C13.474 24.6365 12.3156 24.1468 11.2926 23.4692L9.08886 25.6729L6.33296 22.917L8.5369 20.713C7.8587 19.6889 7.36885 18.5292 7.11672 17.2832H4V13.3857L7.11908 13.3857C7.37222 12.1426 7.86209 10.9854 8.53956 9.96348L6.3323 7.75622L9.0882 5.00032L11.2966 7.20873C12.3186 6.53245 13.4756 6.04368 14.7184 5.79147V2.66699L18.6159 2.66699V5.7917C19.8594 6.04421 21.017 6.53355 22.0394 7.21059L24.2463 5.00362L27.0022 7.75952L24.7955 9.9663C25.472 10.9875 25.9612 12.1437 26.2141 13.3857L29.3333 13.3857V17.2832H26.2164C25.9645 18.528 25.4754 19.6868 24.7981 20.7102L27.0016 22.9137L24.2457 25.6696ZM16.6666 21.667C20.1644 21.667 22.9999 18.8315 22.9999 15.3337C22.9999 11.8359 20.1644 9.00033 16.6666 9.00033C13.1688 9.00033 10.3332 11.8359 10.3332 15.3337C10.3332 18.8315 13.1688 21.667 16.6666 21.667Z" fill="#aeaeae"/>
</svg>
